<svg width="512" height="512" viewBox="0 0 512 512" fill="none" xmlns="http://www.w3.org/2000/svg">
  <!-- Background circle -->
  <circle cx="256" cy="256" r="240" fill="url(#gradient-bg)"/>
  
  <!-- Balloon -->
  <ellipse cx="256" cy="200" rx="80" ry="100" fill="url(#gradient-balloon)"/>
  
  <!-- Balloon string -->
  <path d="M256 300 L256 400 L240 420 L272 420 L256 400" stroke="#8B5CF6" stroke-width="4" fill="none"/>
  
  <!-- Balloon highlight -->
  <ellipse cx="240" cy="180" rx="20" ry="25" fill="rgba(255,255,255,0.3)"/>
  
  <!-- Small decorative balloons -->
  <ellipse cx="180" cy="150" rx="15" ry="20" fill="url(#gradient-pink)"/>
  <ellipse cx="332" cy="170" rx="12" ry="18" fill="url(#gradient-blue)"/>
  <ellipse cx="160" cy="280" rx="10" ry="15" fill="url(#gradient-purple)"/>
  <ellipse cx="352" cy="250" rx="8" ry="12" fill="url(#gradient-green)"/>
  
  <!-- Gradients -->
  <defs>
    <linearGradient id="gradient-bg" x1="0%" y1="0%" x2="100%" y2="100%">
      <stop offset="0%" style="stop-color:#F3F4F6;stop-opacity:1" />
      <stop offset="100%" style="stop-color:#E5E7EB;stop-opacity:1" />
    </linearGradient>
    
    <linearGradient id="gradient-balloon" x1="0%" y1="0%" x2="100%" y2="100%">
      <stop offset="0%" style="stop-color:#EC4899;stop-opacity:1" />
      <stop offset="100%" style="stop-color:#8B5CF6;stop-opacity:1" />
    </linearGradient>
    
    <linearGradient id="gradient-pink" x1="0%" y1="0%" x2="100%" y2="100%">
      <stop offset="0%" style="stop-color:#F472B6;stop-opacity:1" />
      <stop offset="100%" style="stop-color:#EC4899;stop-opacity:1" />
    </linearGradient>
    
    <linearGradient id="gradient-blue" x1="0%" y1="0%" x2="100%" y2="100%">
      <stop offset="0%" style="stop-color:#60A5FA;stop-opacity:1" />
      <stop offset="100%" style="stop-color:#3B82F6;stop-opacity:1" />
    </linearGradient>
    
    <linearGradient id="gradient-purple" x1="0%" y1="0%" x2="100%" y2="100%">
      <stop offset="0%" style="stop-color:#A78BFA;stop-opacity:1" />
      <stop offset="100%" style="stop-color:#8B5CF6;stop-opacity:1" />
    </linearGradient>
    
    <linearGradient id="gradient-green" x1="0%" y1="0%" x2="100%" y2="100%">
      <stop offset="0%" style="stop-color:#34D399;stop-opacity:1" />
      <stop offset="100%" style="stop-color:#10B981;stop-opacity:1" />
    </linearGradient>
  </defs>
</svg> 